<svg width="27" height="27" viewBox="0 0 27 27" preserveAspectRatio="none" xmlns="http://www.w3.org/2000/svg"><path fill="currentColor" d="M11.732 7.122c-.119-.572-.35-.627-.558-.675-.17-.04-.367-.078-.563-.115-.194-.037-.528-.02-.858.247-.331.264-1.238.886-1.536 2.447-.298 1.559.47 3.269.574 3.508.108.237 1.365 3.902 4.11 5.744 2.281 1.53 2.827 1.417 3.375 1.468.55.048 1.887-.435 2.273-1.13.385-.692.506-1.326.46-1.473-.048-.147-.23-.263-.494-.479-.262-.215-1.561-1.256-1.812-1.415-.249-.155-.435-.245-.691.033-.257.279-.957.886-1.17 1.065-.212.178-.386.172-.652-.04-.262-.216-1.145-.731-2.062-2.026-.713-1.008-1.105-2.157-1.217-2.508-.111-.349.074-.492.252-.623.16-.115.367-.314.55-.471.18-.158.254-.279.393-.472.137-.192.124-.387.082-.56-.042-.173-.314-1.848-.456-2.525z"/><path d="M3.89 21.273l.475.158.088-.264-.178-.214-.384.32zm-1.5 4.505l-.474-.158-.28.837.862-.191-.108-.488zm5.646-1.255l.219-.45-.157-.076-.17.038.108.488zM25.5 13.278c0 6.627-5.373 12-12 12v1c7.18 0 13-5.82 13-13h-1zm-12-12c6.627 0 12 5.372 12 12h1c0-7.18-5.82-13-13-13v1zm-12 12c0-6.628 5.373-12 12-12v-1c-7.18 0-13 5.82-13 13h1zm2.775 7.675A11.95 11.95 0 011.5 13.278h-1a12.95 12.95 0 003.006 8.315l.769-.64zm-1.412 4.983l1.502-4.505-.949-.316-1.501 4.505.948.316zm5.064-1.901L2.28 25.29l.217.976 5.647-1.255-.217-.976zm5.573 1.243a11.95 11.95 0 01-5.246-1.204l-.438.899a12.95 12.95 0 005.684 1.305v-1z"/></svg>