<svg width="25" height="26" viewBox="0 0 25 26" fill="none" xmlns="http://www.w3.org/2000/svg"><rect x=".5" y="1.167" width="24" height="24" rx="3.5"/><path fill="currentColor" d="M18.348 15.215c1.207 1.17 1.458 1.741 1.499 1.811.498.867-.553.935-.553.935l-2.012.03s-.435.09-1.003-.32c-.754-.54-1.784-1.945-2.336-1.762-.562.185-.383 1.659-.383 1.659s.005.18-.122.325c-.14.153-.412.094-.412.094h-.58s-2.148.01-3.9-1.898C6.637 14.01 5.04 10.123 5.04 10.123s-.097-.247.007-.378c.12-.147.444-.145.444-.145h2.153s.201.028.346.14c.122.092.188.265.188.265s.26.724.722 1.559c.899 1.626 1.318 1.982 1.623 1.806.444-.255.31-2.298.31-2.298s.01-.743-.224-1.074c-.18-.257-.518-.332-.667-.354-.123-.014.077-.309.335-.44.387-.197 1.073-.211 1.88-.202.63.007.868-.002.868-.002.742.187.491.914.491 2.648 0 .558-.097 1.34.288 1.598.165.115.758.132 1.765-1.661.48-.85.858-1.65.858-1.65s.082-.18.202-.255c.127-.08.294-.08.294-.08l2.266.012s.682-.09.79.234c.116.337-.278.928-1.202 2.22-1.521 2.12-1.69 1.923-.43 3.149z"/></svg>