<svg width="158" height="49" viewBox="0 0 158 49" preserveAspectRatio="none" fill="none" xmlns="http://www.w3.org/2000/svg"><path fill="currentColor" d="M1.455 44V29.908h5.518c1.21 0 2.187.322 2.93.967.742.645 1.113 1.494 1.113 2.549 0 .736-.235 1.4-.704 1.992-.475.599-1.05.96-1.728 1.084v.078c.957.124 1.722.498 2.295 1.123.566.625.85 1.406.85 2.344 0 1.243-.42 2.213-1.26 2.91C9.622 43.652 8.45 44 6.953 44H1.455zm1.758-8.018h2.812c1.042 0 1.836-.201 2.383-.605.554-.404.83-.986.83-1.748 0-.697-.23-1.234-.693-1.611-.462-.372-1.12-.557-1.973-.557h-3.36v4.521zm3.476 6.465c2.155 0 3.233-.83 3.233-2.49 0-1.64-1.133-2.46-3.399-2.46h-3.31v4.95h3.476zM23.846 44h-8.73V29.908h8.73v1.582h-6.972v4.522h6.611v1.562h-6.611v4.844h6.973V44zm9.52.234c-1.946 0-3.489-.657-4.628-1.972-1.146-1.309-1.719-3.08-1.719-5.313 0-2.213.576-3.978 1.729-5.293 1.152-1.321 2.692-1.982 4.619-1.982 1.497 0 2.777.41 3.838 1.23 1.054.814 1.712 1.898 1.972 3.252H37.38a3.755 3.755 0 00-1.474-2.08c-.73-.52-1.576-.781-2.54-.781-1.373 0-2.473.514-3.3 1.543s-1.24 2.399-1.24 4.111c0 1.732.41 3.109 1.23 4.131.82 1.022 1.927 1.533 3.32 1.533.997 0 1.846-.221 2.55-.664.69-.442 1.174-1.067 1.454-1.875h1.797c-.345 1.341-1.019 2.37-2.021 3.086-1.003.716-2.266 1.074-3.79 1.074zM52.146 44v-6.416H44.41V44h-1.757V29.908h1.758v6.094h7.734v-6.094h1.758V44h-1.758zm13.632-4.033H60.17L58.755 44H56.91l5.196-14.092h1.738L69.038 44h-1.845l-1.416-4.033zm-5.088-1.494h4.57l-2.256-6.426h-.059l-2.255 6.426zM78.03 44V29.908h5.518c1.21 0 2.187.322 2.93.967.742.645 1.113 1.494 1.113 2.549 0 .736-.235 1.4-.703 1.992-.476.599-1.052.96-1.729 1.084v.078c.957.124 1.722.498 2.295 1.123.566.625.85 1.406.85 2.344 0 1.243-.42 2.213-1.26 2.91-.847.697-2.019 1.045-3.516 1.045H78.03zm1.758-8.018H82.6c1.042 0 1.836-.201 2.383-.605.554-.404.83-.986.83-1.748 0-.697-.23-1.234-.693-1.611-.462-.372-1.12-.557-1.973-.557h-3.36v4.521zm3.477 6.465c2.154 0 3.232-.83 3.232-2.49 0-1.64-1.133-2.46-3.399-2.46h-3.31v4.95h3.477zm14.227 1.787c-1.947 0-3.49-.657-4.63-1.972-1.145-1.309-1.718-3.08-1.718-5.313 0-2.213.576-3.978 1.729-5.293 1.152-1.321 2.692-1.982 4.619-1.982 1.497 0 2.776.41 3.838 1.23 1.054.814 1.712 1.898 1.972 3.252h-1.797a3.75 3.75 0 00-1.474-2.08c-.73-.52-1.576-.781-2.54-.781-1.373 0-2.473.514-3.3 1.543s-1.24 2.399-1.24 4.111c0 1.732.41 3.109 1.23 4.131.82 1.022 1.927 1.533 3.32 1.533.997 0 1.846-.221 2.549-.664.69-.442 1.176-1.067 1.455-1.875h1.797c-.345 1.341-1.019 2.37-2.021 3.086-1.003.716-2.266 1.074-3.79 1.074zM115.508 44h-8.73V29.908h8.73v1.582h-6.972v4.522h6.611v1.562h-6.611v4.844h6.972V44zm3.72 0V29.908h8.359v1.602h-6.592V44h-1.767zm13.924-5.185c-.104 1.68-.433 2.854-.986 3.525v.078h6.836V31.49h-5.391l-.459 7.325zm-2.578 7.968h-1.631v-4.365h1.045c.899-.475 1.403-1.69 1.514-3.643l.537-8.867h8.721v12.51h1.758v4.365h-1.631V44h-10.313v2.783zm22.938-6.816h-5.605L146.491 44h-1.846l5.196-14.092h1.738L156.774 44h-1.845l-1.417-4.033zm-5.087-1.494h4.57l-2.256-6.426h-.059l-2.255 6.426z"/><path d="M82.89 9c0 2.308-1.284 4.444-2.632 6.041a18.24 18.24 0 01-2.368 2.325 18.24 18.24 0 01-2.368-2.324C74.173 13.443 72.89 11.307 72.89 9s1.283-4.444 2.632-6.041A18.239 18.239 0 0177.89.634a18.239 18.239 0 012.368 2.324C81.606 4.557 82.89 6.693 82.89 9z"/><path d="M75.77 8.757c1.675 1.675 2.328 4.114 2.548 6.201a18.306 18.306 0 01.04 3.301 18.292 18.292 0 01-3.301-.04c-2.088-.218-4.527-.872-6.202-2.547-1.675-1.675-2.329-4.115-2.548-6.201a18.277 18.277 0 01-.04-3.302 18.292 18.292 0 013.301.04c2.087.22 4.527.873 6.202 2.548zm5.766 0c-1.675 1.675-2.328 4.114-2.547 6.201a18.277 18.277 0 00-.04 3.301 18.292 18.292 0 003.301-.04c2.087-.218 4.526-.872 6.201-2.547 1.675-1.675 2.329-4.115 2.548-6.201a18.277 18.277 0 00.04-3.302 18.293 18.293 0 00-3.301.04c-2.087.22-4.527.873-6.202 2.548zM53.5 12h-52M155 12h-52"/></svg>