<svg xmlns="http://www.w3.org/2000/svg" xmlns:xlink="http://www.w3.org/1999/xlink"><symbol id="icon-fb" viewBox="0 0 25 25">
<rect x="0.5" y="0.5" width="24" height="24" rx="3.5"/>
<path fill="currentColor" stroke="none" d="M15.6309 12.2H13.6667V20H10.75V12.2H9V9.8H10.75V8.35391C10.7523 6.24922 11.6022 5 14.013 5H16V7.4H14.667C13.7282 7.4 13.6667 7.76094 13.6667 8.43359V9.8H16L15.6309 12.2Z"/>
</symbol><symbol id="icon-insta" viewBox="0 0 25 25">
<rect x="0.5" y="0.5" width="24" height="24" rx="3.5"/>
<circle cx="12.5" cy="12.5" r="5"/>
<circle stroke="none" fill="currentColor" cx="19.5" cy="5.5" r="1.5"/>
</symbol><symbol id="icon-vk" viewBox="0 0 25 26">
<rect x="0.5" y="1.1665" width="24" height="24" rx="3.5"/>
<path stroke="none" fill="currentColor" d="M18.3482 15.2148C19.5548 16.3842 19.8061 16.956 19.8468 17.0263C20.3449 17.8934 19.2945 17.9614 19.2945 17.9614L17.2819 17.9918C17.2819 17.9918 16.8472 18.0809 16.279 17.6708C15.5252 17.1318 14.4951 15.7257 13.9427 15.9085C13.3813 16.0936 13.5602 17.5677 13.5602 17.5677C13.5602 17.5677 13.5647 17.7481 13.4379 17.8934C13.2975 18.0457 13.0259 17.9871 13.0259 17.9871H12.4463C12.4463 17.9871 10.298 17.9965 8.54574 16.089C6.63733 14.0103 5.04132 10.1225 5.04132 10.1225C5.04132 10.1225 4.94398 9.87645 5.04811 9.74522C5.1681 9.59758 5.49182 9.59992 5.49182 9.59992H7.64474C7.64474 9.59992 7.84622 9.62805 7.9911 9.74053C8.11335 9.83193 8.179 10.0053 8.179 10.0053C8.179 10.0053 8.43934 10.7295 8.90117 11.5637C9.79991 13.1901 10.2187 13.5463 10.5243 13.3705C10.9681 13.1151 10.8345 11.0716 10.8345 11.0716C10.8345 11.0716 10.8435 10.3287 10.6104 9.99831C10.4293 9.74053 10.0919 9.66554 9.94253 9.64445C9.82029 9.63039 10.0195 9.33511 10.2776 9.20388C10.6647 9.00703 11.3506 8.99297 12.1588 9.00234C12.7882 9.00937 13.0259 9 13.0259 9C13.7684 9.18748 13.5171 9.91395 13.5171 11.6481C13.5171 12.2058 13.4198 12.9886 13.8046 13.2463C13.9699 13.3612 14.563 13.3776 15.5704 11.5848C16.0504 10.7342 16.4284 9.93504 16.4284 9.93504C16.4284 9.93504 16.5099 9.75459 16.6299 9.6796C16.7567 9.59992 16.9242 9.59992 16.9242 9.59992L19.1903 9.61164C19.1903 9.61164 19.8717 9.52259 19.9804 9.84599C20.0959 10.1834 19.702 10.774 18.7783 12.0652C17.257 14.1861 17.0872 13.9892 18.3482 15.2148Z"/>
</symbol><symbol id="icon-whatsapp" viewBox="0 0 27 27">
<path fill="currentColor" d="M11.7322 7.12214C11.6131 6.55018 11.3828 6.49535 11.1737 6.44729C11.0033 6.40663 10.8072 6.36917 10.6111 6.33171C10.4175 6.29472 10.083 6.31198 9.75349 6.5791C9.42204 6.84315 8.51536 7.46535 8.21717 9.02627C7.91947 10.5846 8.68664 12.2949 8.79149 12.5341C8.89926 12.7711 10.1561 16.4364 12.9003 18.2782C15.1824 19.8072 15.7282 19.695 16.2755 19.7455C16.8258 19.7938 18.1626 19.3105 18.5487 18.6159C18.9343 17.9239 19.0554 17.2897 19.0082 17.1427C18.9611 16.9957 18.7799 16.8799 18.515 16.6643C18.2526 16.4491 16.9536 15.4082 16.7029 15.2494C16.4541 15.0937 16.2681 15.004 16.0116 15.2824C15.7552 15.5608 15.0546 16.1682 14.8423 16.3468C14.6301 16.5254 14.4557 16.5191 14.1903 16.3061C13.9278 16.0909 13.0451 15.576 12.1284 14.2808C11.4151 13.2734 11.0225 12.1243 10.9114 11.773C10.7999 11.4243 10.9853 11.2812 11.1634 11.1502C11.3235 11.0347 11.5295 10.8359 11.7126 10.6788C11.8932 10.5212 11.9666 10.4 12.1062 10.2075C12.2434 10.0146 12.2304 9.82001 12.1882 9.64691C12.146 9.47381 11.8739 7.79854 11.7322 7.12214Z"/>
<path d="M3.89061 21.2727L4.36495 21.4308L4.453 21.1666L4.2748 20.9527L3.89061 21.2727ZM2.38889 25.7778L1.91455 25.6197L1.63529 26.4575L2.49735 26.2659L2.38889 25.7778ZM8.03513 24.5231L8.25401 24.0736L8.09706 23.9972L7.92667 24.035L8.03513 24.5231ZM25.5 13.2778C25.5 19.9052 20.1274 25.2778 13.5 25.2778V26.2778C20.6797 26.2778 26.5 20.4575 26.5 13.2778H25.5ZM13.5 1.27783C20.1274 1.27783 25.5 6.65042 25.5 13.2778H26.5C26.5 6.09813 20.6797 0.277832 13.5 0.277832V1.27783ZM1.5 13.2778C1.5 6.65042 6.87258 1.27783 13.5 1.27783V0.277832C6.3203 0.277832 0.5 6.09813 0.5 13.2778H1.5ZM4.2748 20.9527C2.54195 18.8722 1.5 16.1973 1.5 13.2778H0.5C0.5 16.4397 1.62947 19.3391 3.50641 21.5927L4.2748 20.9527ZM2.86323 25.9359L4.36495 21.4308L3.41627 21.1146L1.91455 25.6197L2.86323 25.9359ZM7.92667 24.035L2.28042 25.2897L2.49735 26.2659L8.1436 25.0112L7.92667 24.035ZM13.5 25.2778C11.6178 25.2778 9.8382 24.8449 8.25401 24.0736L7.81626 24.9727C9.53385 25.8089 11.4629 26.2778 13.5 26.2778V25.2778Z"/>
</symbol><symbol id="logo-menu" viewBox="0 0 158 49">
<path fill="currentColor" stroke="none" d="M1.45508 44V29.9082H6.97266C8.18359 29.9082 9.16016 30.2305 9.90234 30.875C10.6445 31.5195 11.0156 32.3691 11.0156 33.4238C11.0156 34.1595 10.7812 34.8236 10.3125 35.416C9.83724 36.015 9.26107 36.3763 8.58398 36.5V36.5781C9.54102 36.7018 10.306 37.0762 10.8789 37.7012C11.4453 38.3262 11.7285 39.1074 11.7285 40.0449C11.7285 41.2884 11.3086 42.2585 10.4688 42.9551C9.6224 43.6517 8.45052 44 6.95312 44H1.45508ZM3.21289 35.9824H6.02539C7.06706 35.9824 7.86133 35.7806 8.4082 35.377C8.96159 34.9733 9.23828 34.3906 9.23828 33.6289C9.23828 32.9323 9.00716 32.3952 8.54492 32.0176C8.08268 31.6465 7.42513 31.4609 6.57227 31.4609H3.21289V35.9824ZM6.68945 42.4473C8.8444 42.4473 9.92188 41.6172 9.92188 39.957C9.92188 38.3164 8.78906 37.4961 6.52344 37.4961H3.21289V42.4473H6.68945ZM23.8465 44H15.116V29.9082H23.8465V31.4902H16.8738V36.0117H23.4852V37.5742H16.8738V42.418H23.8465V44ZM33.3668 44.2344C31.4202 44.2344 29.8772 43.5768 28.7379 42.2617C27.5921 40.9531 27.0191 39.1823 27.0191 36.9492C27.0191 34.7357 27.5953 32.9714 28.7477 31.6562C29.9 30.3346 31.4397 29.6738 33.3668 29.6738C34.8642 29.6738 36.1435 30.084 37.2047 30.9043C38.2594 31.7181 38.9169 32.8021 39.1773 34.1562H37.3805C37.1266 33.2839 36.635 32.5905 35.9059 32.0762C35.1767 31.5553 34.3303 31.2949 33.3668 31.2949C31.9931 31.2949 30.8928 31.8092 30.066 32.8379C29.2392 33.8665 28.8258 35.237 28.8258 36.9492C28.8258 38.681 29.2359 40.0579 30.0562 41.0801C30.8766 42.1022 31.9833 42.6133 33.3766 42.6133C34.3727 42.6133 35.2223 42.3919 35.9254 41.9492C36.6155 41.5065 37.1005 40.8815 37.3805 40.0742H39.1773C38.8323 41.4154 38.1585 42.444 37.1559 43.1602C36.1533 43.8763 34.8902 44.2344 33.3668 44.2344ZM52.1449 44V37.584H44.4105V44H42.6527V29.9082H44.4105V36.002H52.1449V29.9082H53.9027V44H52.1449ZM65.7766 39.9668H60.1711L58.7551 44H56.9094L62.1047 29.9082H63.843L69.0383 44H67.1926L65.7766 39.9668ZM60.6887 38.4727H65.259L63.0031 32.0469H62.9445L60.6887 38.4727ZM78.0301 44V29.9082H83.5477C84.7586 29.9082 85.7352 30.2305 86.4773 30.875C87.2195 31.5195 87.5906 32.3691 87.5906 33.4238C87.5906 34.1595 87.3562 34.8236 86.8875 35.416C86.4122 36.015 85.8361 36.3763 85.159 36.5V36.5781C86.116 36.7018 86.881 37.0762 87.4539 37.7012C88.0203 38.3262 88.3035 39.1074 88.3035 40.0449C88.3035 41.2884 87.8836 42.2585 87.0437 42.9551C86.1974 43.6517 85.0255 44 83.5281 44H78.0301ZM79.7879 35.9824H82.6004C83.6421 35.9824 84.4363 35.7806 84.9832 35.377C85.5366 34.9733 85.8133 34.3906 85.8133 33.6289C85.8133 32.9323 85.5822 32.3952 85.1199 32.0176C84.6577 31.6465 84.0001 31.4609 83.1473 31.4609H79.7879V35.9824ZM83.2645 42.4473C85.4194 42.4473 86.4969 41.6172 86.4969 39.957C86.4969 38.3164 85.3641 37.4961 83.0984 37.4961H79.7879V42.4473H83.2645ZM97.4918 44.2344C95.5452 44.2344 94.0022 43.5768 92.8629 42.2617C91.7171 40.9531 91.1441 39.1823 91.1441 36.9492C91.1441 34.7357 91.7203 32.9714 92.8727 31.6562C94.025 30.3346 95.5647 29.6738 97.4918 29.6738C98.9892 29.6738 100.268 30.084 101.33 30.9043C102.384 31.7181 103.042 32.8021 103.302 34.1562H101.505C101.252 33.2839 100.76 32.5905 100.031 32.0762C99.3017 31.5553 98.4553 31.2949 97.4918 31.2949C96.1181 31.2949 95.0178 31.8092 94.191 32.8379C93.3642 33.8665 92.9508 35.237 92.9508 36.9492C92.9508 38.681 93.3609 40.0579 94.1813 41.0801C95.0016 42.1022 96.1083 42.6133 97.5016 42.6133C98.4977 42.6133 99.3473 42.3919 100.05 41.9492C100.74 41.5065 101.226 40.8815 101.505 40.0742H103.302C102.957 41.4154 102.283 42.444 101.281 43.1602C100.278 43.8763 99.0152 44.2344 97.4918 44.2344ZM115.508 44H106.778V29.9082H115.508V31.4902H108.536V36.0117H115.147V37.5742H108.536V42.418H115.508V44ZM119.228 44V29.9082H127.587V31.5098H120.995V44H119.228ZM133.152 38.8145C133.048 40.4941 132.719 41.6693 132.166 42.3398V42.418H139.002V31.4902H133.611L133.152 38.8145ZM130.574 46.7832H128.943V42.418H129.988C130.887 41.9427 131.391 40.7285 131.502 38.7754L132.039 29.9082H140.76V42.418H142.518V46.7832H140.887V44H130.574V46.7832ZM153.512 39.9668H147.907L146.491 44H144.645L149.841 29.9082H151.579L156.774 44H154.929L153.512 39.9668ZM148.425 38.4727H152.995L150.739 32.0469H150.68L148.425 38.4727Z"/>
<path d="M82.8896 9C82.8896 11.3081 81.6061 13.4441 80.2576 15.0414C79.5896 15.8327 78.9203 16.4743 78.418 16.918C78.2079 17.1036 78.0276 17.254 77.8897 17.3656C77.7517 17.254 77.5714 17.1036 77.3613 16.918C76.859 16.4743 76.1897 15.8327 75.5217 15.0414C74.1732 13.4441 72.8896 11.3081 72.8896 9C72.8896 6.69191 74.1732 4.55589 75.5217 2.95858C76.1897 2.16732 76.859 1.52568 77.3613 1.08202C77.5714 0.896438 77.7517 0.746034 77.8896 0.634354C78.0276 0.746034 78.2079 0.896438 78.418 1.08202C78.9203 1.52568 79.5896 2.16732 80.2576 2.95858C81.6061 4.55589 82.8896 6.69191 82.8896 9Z"/>
<path d="M75.7698 8.75694C77.4448 10.4319 78.0984 12.8714 78.3177 14.9582C78.4264 15.993 78.4261 16.9203 78.3986 17.5887C78.3874 17.8586 78.3719 18.0856 78.3574 18.2595C78.1835 18.274 77.9565 18.2896 77.6866 18.3007C77.0182 18.3283 76.0909 18.3285 75.0561 18.2198C72.9693 18.0005 70.5297 17.3469 68.8548 15.672C67.1799 13.997 66.5262 11.5575 66.307 9.47068C66.1982 8.4359 66.1985 7.5086 66.2261 6.84021C66.2372 6.57029 66.2528 6.34332 66.2672 6.1694C66.4412 6.15491 66.6681 6.13935 66.9381 6.12821C67.6065 6.10064 68.5337 6.10039 69.5685 6.20911C71.6553 6.42838 74.0949 7.08201 75.7698 8.75694Z"/>
<path d="M81.5364 8.75694C79.8614 10.4319 79.2078 12.8714 78.9886 14.9582C78.8798 15.993 78.8801 16.9203 78.9077 17.5887C78.9188 17.8586 78.9343 18.0856 78.9488 18.2595C79.1228 18.274 79.3497 18.2896 79.6196 18.3007C80.288 18.3283 81.2153 18.3285 82.2501 18.2198C84.3369 18.0005 86.7765 17.3469 88.4514 15.672C90.1264 13.997 90.78 11.5575 90.9992 9.47068C91.108 8.4359 91.1077 7.5086 91.0801 6.84021C91.069 6.57029 91.0535 6.34332 91.039 6.1694C90.865 6.15491 90.6381 6.13935 90.3682 6.12821C89.6998 6.10064 88.7725 6.10039 87.7377 6.20911C85.6509 6.42838 83.2113 7.08201 81.5364 8.75694Z"/>
<path d="M53.5 12H1.5"/>
<path d="M155 12L103 12"/>
</symbol><symbol id="logo" viewBox="0 0 137 47">
<path d="M0.9 41.8H1C1.09333 41.8 1.18 41.76 1.26 41.68C1.34 41.6 1.40667 41.5067 1.46 41.4C1.52667 41.2933 1.57333 41.18 1.6 41.06C1.62667 40.9267 1.64 40.8067 1.64 40.7V30.06C1.64 29.9667 1.62667 29.86 1.6 29.74C1.57333 29.62 1.52667 29.5067 1.46 29.4C1.40667 29.28 1.33333 29.1867 1.24 29.12C1.16 29.04 1.06667 29 0.96 29H0.86V28.8H4.14C5.38 28.8 6.34667 29.0733 7.04 29.62C7.74667 30.1667 8.1 30.8933 8.1 31.8C8.1 32.1867 8.03333 32.5333 7.9 32.84C7.76667 33.1467 7.59333 33.42 7.38 33.66C7.18 33.9 6.96 34.1067 6.72 34.28C6.48 34.44 6.25333 34.5733 6.04 34.68C6.6 34.7867 7.06667 34.9667 7.44 35.22C7.81333 35.4733 8.11333 35.7667 8.34 36.1C8.58 36.42 8.74667 36.7667 8.84 37.14C8.93333 37.5133 8.98 37.88 8.98 38.24C8.98 38.9333 8.85333 39.52 8.6 40C8.34667 40.4667 8.00667 40.8533 7.58 41.16C7.16667 41.4533 6.68667 41.6667 6.14 41.8C5.60667 41.9333 5.05333 42 4.48 42H0.9V41.8ZM7.62 38.36C7.51333 37.3333 7.16667 36.54 6.58 35.98C5.99333 35.42 5.16667 35.14 4.1 35.14H2.98V41.34H4.14C5.22 41.34 6.06667 41.1 6.68 40.62C7.30667 40.1267 7.62 39.4467 7.62 38.58V38.36ZM6.8 31.98C6.76 31.2067 6.48667 30.5933 5.98 30.14C5.48667 29.6867 4.82 29.46 3.98 29.46H2.98V34.5H4.02C4.58 34.5 5.03333 34.4267 5.38 34.28C5.74 34.1333 6.02667 33.9467 6.24 33.72C6.45333 33.48 6.6 33.22 6.68 32.94C6.76 32.66 6.8 32.3867 6.8 32.12V31.98ZM11.8852 41.8H11.9852C12.0918 41.8 12.1852 41.7667 12.2652 41.7C12.3452 41.62 12.4118 41.5267 12.4652 41.42C12.5318 41.3133 12.5785 41.2 12.6052 41.08C12.6452 40.96 12.6652 40.8467 12.6652 40.74V30.04C12.6652 29.9467 12.6452 29.84 12.6052 29.72C12.5785 29.6 12.5318 29.4867 12.4652 29.38C12.4118 29.2733 12.3452 29.1867 12.2652 29.12C12.1852 29.04 12.0918 29 11.9852 29H11.8852V28.8H19.5852V30.66H19.3852C19.3585 30.3533 19.2385 30.0867 19.0252 29.86C18.8118 29.62 18.4785 29.5 18.0252 29.5H14.0052V34.56H17.3252C17.6318 34.56 17.8852 34.4667 18.0852 34.28C18.2985 34.0933 18.4052 33.8733 18.4052 33.62H18.6052V36.12H18.4052C18.4052 35.88 18.3052 35.6733 18.1052 35.5C17.9052 35.3267 17.6452 35.24 17.3252 35.24H14.0052V41.3H18.3852C18.6385 41.3 18.8585 41.24 19.0452 41.12C19.2318 41 19.3852 40.86 19.5052 40.7C19.6385 40.5267 19.7318 40.3467 19.7852 40.16C19.8518 39.96 19.8852 39.7933 19.8852 39.66H20.0852V42H11.8852V41.8ZM29.1681 29.32C28.1815 29.32 27.3215 29.5 26.5881 29.86C25.8681 30.2067 25.2681 30.6667 24.7881 31.24C24.3081 31.8 23.9481 32.4333 23.7081 33.14C23.4815 33.8467 23.3681 34.5467 23.3681 35.24C23.3681 36.0267 23.5215 36.8 23.8281 37.56C24.1348 38.3067 24.5548 38.9733 25.0881 39.56C25.6348 40.1333 26.2681 40.6 26.9881 40.96C27.7081 41.3067 28.4881 41.48 29.3281 41.48C29.5681 41.48 29.8481 41.4533 30.1681 41.4C30.5015 41.3467 30.8281 41.2467 31.1481 41.1C31.4681 40.94 31.7615 40.72 32.0281 40.44C32.3081 40.16 32.5215 39.7933 32.6681 39.34H32.8681V41.56C32.6681 41.56 32.4548 41.5867 32.2281 41.64C32.0148 41.6933 31.7748 41.7533 31.5081 41.82C31.1615 41.9133 30.7748 42 30.3481 42.08C29.9348 42.16 29.4948 42.2 29.0281 42.2C27.8681 42.2 26.8481 42 25.9681 41.6C25.0881 41.2 24.3548 40.68 23.7681 40.04C23.1815 39.4 22.7415 38.68 22.4481 37.88C22.1548 37.0667 22.0081 36.2467 22.0081 35.42C22.0081 34.5933 22.1548 33.7733 22.4481 32.96C22.7415 32.1467 23.1881 31.42 23.7881 30.78C24.3881 30.1267 25.1415 29.6 26.0481 29.2C26.9548 28.8 28.0215 28.6 29.2481 28.6C29.6881 28.6 30.0815 28.64 30.4281 28.72C30.7881 28.8 31.1081 28.88 31.3881 28.96C31.5881 29.0267 31.7681 29.08 31.9281 29.12C32.1015 29.1467 32.2681 29.16 32.4281 29.16V31.38H32.2281C32.1481 30.9667 32.0015 30.6267 31.7881 30.36C31.5748 30.08 31.3215 29.8667 31.0281 29.72C30.7481 29.5733 30.4415 29.4733 30.1081 29.42C29.7881 29.3533 29.4748 29.32 29.1681 29.32ZM43.7691 41.8H43.8691C43.9624 41.8 44.0491 41.7667 44.1291 41.7C44.2091 41.62 44.2757 41.5267 44.3291 41.42C44.3957 41.3 44.4424 41.18 44.4691 41.06C44.4957 40.9267 44.5091 40.8067 44.5091 40.7V35.26H38.1091V40.7C38.1091 40.8067 38.1224 40.9267 38.1491 41.06C38.1757 41.18 38.2157 41.2933 38.2691 41.4C38.3224 41.5067 38.3824 41.6 38.4491 41.68C38.5291 41.76 38.6224 41.8 38.7291 41.8H38.8291V42H36.0291V41.8H36.1291C36.2224 41.8 36.3091 41.7667 36.3891 41.7C36.4691 41.62 36.5357 41.5267 36.5891 41.42C36.6557 41.3 36.7024 41.18 36.7291 41.06C36.7557 40.9267 36.7691 40.8067 36.7691 40.7V30.04C36.7691 29.9467 36.7557 29.84 36.7291 29.72C36.7024 29.6 36.6624 29.4867 36.6091 29.38C36.5557 29.2733 36.4891 29.1867 36.4091 29.12C36.3291 29.04 36.2357 29 36.1291 29H36.0291V28.8H38.8291V29H38.7291C38.6224 29 38.5291 29.04 38.4491 29.12C38.3691 29.1867 38.3024 29.2733 38.2491 29.38C38.2091 29.4867 38.1757 29.6 38.1491 29.72C38.1224 29.84 38.1091 29.9467 38.1091 30.04V34.56H44.5091V30.04C44.5091 29.9467 44.4957 29.84 44.4691 29.72C44.4424 29.6 44.4024 29.4867 44.3491 29.38C44.2957 29.2733 44.2291 29.1867 44.1491 29.12C44.0691 29.04 43.9757 29 43.8691 29H43.7691V28.8H46.5691V29H46.4691C46.3624 29 46.2691 29.04 46.1891 29.12C46.1091 29.1867 46.0424 29.2733 45.9891 29.38C45.9491 29.4867 45.9157 29.6 45.8891 29.72C45.8624 29.84 45.8491 29.9467 45.8491 30.04V40.7C45.8491 40.8067 45.8624 40.9267 45.8891 41.06C45.9291 41.18 45.9757 41.2933 46.0291 41.4C46.0824 41.5067 46.1424 41.6 46.2091 41.68C46.2891 41.76 46.3757 41.8 46.4691 41.8H46.5691V42H43.7691V41.8ZM57.0705 41.8H57.1705C57.4905 41.8 57.6505 41.6533 57.6505 41.36C57.6505 41.2533 57.6305 41.14 57.5905 41.02L55.7905 36.16H52.2905L50.5505 40.94C50.5105 41.0467 50.4905 41.1467 50.4905 41.24C50.4905 41.4133 50.5371 41.5533 50.6305 41.66C50.7238 41.7533 50.8238 41.8 50.9305 41.8H51.0305V42H48.8105V41.8H48.9105C49.0838 41.8 49.2505 41.7 49.4105 41.5C49.5838 41.2867 49.7238 41.04 49.8305 40.76L54.4105 28.56L58.8905 40.64C58.9838 40.9067 59.1105 41.1667 59.2705 41.42C59.4438 41.6733 59.6638 41.8 59.9305 41.8H60.0305V42H57.0705V41.8ZM52.4905 35.48H55.5705L54.0305 31.3L52.4905 35.48ZM68.8227 41.8H68.9227C69.016 41.8 69.1027 41.76 69.1827 41.68C69.2627 41.6 69.3293 41.5067 69.3827 41.4C69.4493 41.2933 69.496 41.18 69.5227 41.06C69.5493 40.9267 69.5627 40.8067 69.5627 40.7V30.06C69.5627 29.9667 69.5493 29.86 69.5227 29.74C69.496 29.62 69.4493 29.5067 69.3827 29.4C69.3293 29.28 69.256 29.1867 69.1627 29.12C69.0827 29.04 68.9893 29 68.8827 29H68.7827V28.8H72.0627C73.3027 28.8 74.2693 29.0733 74.9627 29.62C75.6693 30.1667 76.0227 30.8933 76.0227 31.8C76.0227 32.1867 75.956 32.5333 75.8227 32.84C75.6893 33.1467 75.516 33.42 75.3027 33.66C75.1027 33.9 74.8827 34.1067 74.6427 34.28C74.4027 34.44 74.176 34.5733 73.9627 34.68C74.5227 34.7867 74.9893 34.9667 75.3627 35.22C75.736 35.4733 76.036 35.7667 76.2627 36.1C76.5027 36.42 76.6693 36.7667 76.7627 37.14C76.856 37.5133 76.9027 37.88 76.9027 38.24C76.9027 38.9333 76.776 39.52 76.5227 40C76.2693 40.4667 75.9293 40.8533 75.5027 41.16C75.0893 41.4533 74.6093 41.6667 74.0627 41.8C73.5293 41.9333 72.976 42 72.4027 42H68.8227V41.8ZM75.5427 38.36C75.436 37.3333 75.0893 36.54 74.5027 35.98C73.916 35.42 73.0893 35.14 72.0227 35.14H70.9027V41.34H72.0627C73.1427 41.34 73.9893 41.1 74.6027 40.62C75.2293 40.1267 75.5427 39.4467 75.5427 38.58V38.36ZM74.7227 31.98C74.6827 31.2067 74.4093 30.5933 73.9027 30.14C73.4093 29.6867 72.7427 29.46 71.9027 29.46H70.9027V34.5H71.9427C72.5027 34.5 72.956 34.4267 73.3027 34.28C73.6627 34.1333 73.9493 33.9467 74.1627 33.72C74.376 33.48 74.5227 33.22 74.6027 32.94C74.6827 32.66 74.7227 32.3867 74.7227 32.12V31.98ZM86.1447 29.32C85.158 29.32 84.298 29.5 83.5647 29.86C82.8447 30.2067 82.2447 30.6667 81.7647 31.24C81.2847 31.8 80.9247 32.4333 80.6847 33.14C80.458 33.8467 80.3447 34.5467 80.3447 35.24C80.3447 36.0267 80.498 36.8 80.8047 37.56C81.1114 38.3067 81.5314 38.9733 82.0647 39.56C82.6114 40.1333 83.2447 40.6 83.9647 40.96C84.6847 41.3067 85.4647 41.48 86.3047 41.48C86.5447 41.48 86.8247 41.4533 87.1447 41.4C87.478 41.3467 87.8047 41.2467 88.1247 41.1C88.4447 40.94 88.738 40.72 89.0047 40.44C89.2847 40.16 89.498 39.7933 89.6447 39.34H89.8447V41.56C89.6447 41.56 89.4314 41.5867 89.2047 41.64C88.9914 41.6933 88.7514 41.7533 88.4847 41.82C88.138 41.9133 87.7514 42 87.3247 42.08C86.9114 42.16 86.4714 42.2 86.0047 42.2C84.8447 42.2 83.8247 42 82.9447 41.6C82.0647 41.2 81.3314 40.68 80.7447 40.04C80.158 39.4 79.718 38.68 79.4247 37.88C79.1314 37.0667 78.9847 36.2467 78.9847 35.42C78.9847 34.5933 79.1314 33.7733 79.4247 32.96C79.718 32.1467 80.1647 31.42 80.7647 30.78C81.3647 30.1267 82.118 29.6 83.0247 29.2C83.9314 28.8 84.998 28.6 86.2247 28.6C86.6647 28.6 87.058 28.64 87.4047 28.72C87.7647 28.8 88.0847 28.88 88.3647 28.96C88.5647 29.0267 88.7447 29.08 88.9047 29.12C89.078 29.1467 89.2447 29.16 89.4047 29.16V31.38H89.2047C89.1247 30.9667 88.978 30.6267 88.7647 30.36C88.5514 30.08 88.298 29.8667 88.0047 29.72C87.7247 29.5733 87.418 29.4733 87.0847 29.42C86.7647 29.3533 86.4514 29.32 86.1447 29.32ZM92.7656 41.8H92.8656C92.9723 41.8 93.0656 41.7667 93.1456 41.7C93.2256 41.62 93.2923 41.5267 93.3456 41.42C93.4123 41.3133 93.459 41.2 93.4856 41.08C93.5256 40.96 93.5456 40.8467 93.5456 40.74V30.04C93.5456 29.9467 93.5256 29.84 93.4856 29.72C93.459 29.6 93.4123 29.4867 93.3456 29.38C93.2923 29.2733 93.2256 29.1867 93.1456 29.12C93.0656 29.04 92.9723 29 92.8656 29H92.7656V28.8H100.466V30.66H100.266C100.239 30.3533 100.119 30.0867 99.9056 29.86C99.6923 29.62 99.359 29.5 98.9056 29.5H94.8856V34.56H98.2056C98.5123 34.56 98.7656 34.4667 98.9656 34.28C99.179 34.0933 99.2856 33.8733 99.2856 33.62H99.4856V36.12H99.2856C99.2856 35.88 99.1856 35.6733 98.9856 35.5C98.7856 35.3267 98.5256 35.24 98.2056 35.24H94.8856V41.3H99.2656C99.519 41.3 99.739 41.24 99.9256 41.12C100.112 41 100.266 40.86 100.386 40.7C100.519 40.5267 100.612 40.3467 100.666 40.16C100.732 39.96 100.766 39.7933 100.766 39.66H100.966V42H92.7656V41.8ZM106.453 41.8H106.553V42H103.673V41.8H103.773C103.879 41.8 103.973 41.7667 104.053 41.7C104.133 41.62 104.199 41.5267 104.253 41.42C104.319 41.3133 104.366 41.2 104.393 41.08C104.419 40.96 104.433 40.8467 104.433 40.74V30.04C104.433 29.9467 104.419 29.84 104.393 29.72C104.366 29.6 104.319 29.4867 104.253 29.38C104.199 29.2733 104.133 29.1867 104.053 29.12C103.973 29.04 103.879 29 103.773 29H103.673V28.8H111.373V30.92H111.173C111.173 30.44 111.066 30.0867 110.853 29.86C110.653 29.62 110.333 29.5 109.893 29.5H105.793V40.74C105.793 40.8467 105.806 40.96 105.833 41.08C105.859 41.2 105.899 41.3133 105.953 41.42C106.019 41.5267 106.093 41.62 106.173 41.7C106.253 41.7667 106.346 41.8 106.453 41.8ZM122.622 41.3V43.8H122.422C122.409 43.6267 122.362 43.4333 122.282 43.22C122.202 43.0067 122.089 42.8067 121.942 42.62C121.809 42.4467 121.649 42.3 121.462 42.18C121.275 42.06 121.069 42 120.842 42H111.622C111.395 42 111.189 42.06 111.002 42.18C110.815 42.3133 110.649 42.4667 110.502 42.64C110.369 42.8267 110.255 43.0267 110.162 43.24C110.082 43.4533 110.035 43.64 110.022 43.8H109.822V41.3H110.702C111.129 41.3 111.429 41.0533 111.602 40.56L116.202 28.5L120.842 40.5C120.935 40.7 121.062 40.8867 121.222 41.06C121.382 41.22 121.569 41.3 121.782 41.3H122.622ZM112.042 41.3H119.742L115.882 31.36L112.042 41.3ZM133.088 41.8H133.188C133.508 41.8 133.668 41.6533 133.668 41.36C133.668 41.2533 133.648 41.14 133.608 41.02L131.808 36.16H128.308L126.568 40.94C126.528 41.0467 126.508 41.1467 126.508 41.24C126.508 41.4133 126.554 41.5533 126.648 41.66C126.741 41.7533 126.841 41.8 126.948 41.8H127.048V42H124.828V41.8H124.928C125.101 41.8 125.268 41.7 125.428 41.5C125.601 41.2867 125.741 41.04 125.848 40.76L130.428 28.56L134.908 40.64C135.001 40.9067 135.128 41.1667 135.288 41.42C135.461 41.6733 135.681 41.8 135.948 41.8H136.048V42H133.088V41.8ZM128.508 35.48H131.588L130.048 31.3L128.508 35.48Z" fill="currentColor" stroke="none"/>
<path d="M72.7534 9C72.7534 11.3296 71.6198 13.4742 70.4418 15.0666C69.857 15.8573 69.2713 16.498 68.8322 16.9406C68.6794 17.0947 68.5446 17.2245 68.4342 17.3278C68.3239 17.2245 68.1891 17.0947 68.0362 16.9406C67.5971 16.498 67.0115 15.8573 66.4266 15.0666C65.2486 13.4742 64.115 11.3296 64.115 9C64.115 6.67044 65.2486 4.52577 66.4266 2.93339C67.0115 2.14273 67.5971 1.502 68.0362 1.0594C68.1891 0.905279 68.3239 0.775524 68.4342 0.672181C68.5446 0.775524 68.6794 0.905279 68.8322 1.0594C69.2713 1.502 69.857 2.14273 70.4418 2.93339C71.6198 4.52577 72.7534 6.67044 72.7534 9Z"/>
<path d="M66.5571 8.77945C68.018 10.4467 68.5896 12.8775 68.7815 14.9616C68.8766 15.9945 68.8764 16.9202 68.8523 17.5874C68.843 17.8431 68.8303 18.0602 68.8182 18.23C68.6694 18.2438 68.4792 18.2584 68.2551 18.2689C67.6705 18.2964 66.8593 18.2967 65.9543 18.1882C64.1282 17.9692 61.9983 17.3167 60.5374 15.6495C59.0765 13.9822 58.5048 11.5515 58.3129 9.46735C58.2179 8.43447 58.2181 7.50877 58.2422 6.84152C58.2514 6.58577 58.2642 6.36869 58.2763 6.1989C58.425 6.18509 58.6152 6.17057 58.8393 6.16002C59.424 6.13249 60.2351 6.13224 61.1401 6.24077C62.9663 6.45975 65.0962 7.11217 66.5571 8.77945Z"/>
<path d="M71.6492 8.77945C70.1883 10.4467 69.6167 12.8775 69.4248 14.9616C69.3297 15.9945 69.3299 16.9202 69.354 17.5874C69.3633 17.8431 69.376 18.0602 69.3881 18.23C69.5369 18.2438 69.7271 18.2584 69.9512 18.2689C70.5358 18.2964 71.347 18.2967 72.252 18.1882C74.0781 17.9692 76.208 17.3167 77.6689 15.6495C79.1298 13.9822 79.7015 11.5515 79.8934 9.46735C79.9884 8.43447 79.9882 7.50877 79.9641 6.84152C79.9549 6.58577 79.9421 6.36869 79.93 6.1989C79.7813 6.18509 79.5911 6.17057 79.367 6.16002C78.7823 6.13249 77.9712 6.13224 77.0662 6.24077C75.24 6.45975 73.1101 7.11217 71.6492 8.77945Z"/>
<path d="M47 12H2"/>
<path d="M136 12L90 12"/>
</symbol></svg>